<svg width="42" height="39" viewBox="0 0 42 39" fill="none" xmlns="http://www.w3.org/2000/svg">
<g id="Vector" opacity="0.9">
<path id="Vector_2" d="M41 17V2.2C41 1.88174 40.8736 1.57652 40.6485 1.35147C40.4235 1.12643 40.1183 1 39.8 1H2.2C1.88174 1 1.57652 1.12643 1.35147 1.35147C1.12643 1.57652 1 1.88174 1 2.2V17M41 17H1M41 17L39.42 22.168C39.1699 22.9873 38.6633 23.7046 37.9749 24.2145C37.2865 24.7243 36.4526 24.9996 35.596 25H33M1 17L2.58 22.168C2.83014 22.9873 3.33668 23.7046 4.02508 24.2145C4.71349 24.7243 5.54737 24.9996 6.404 25H9M33 9H35M16 24C16 24 16 38 9 38M26 24C26 24 26 38 33 38M21 24V38" stroke="#FA5F0F" stroke-width="1.88" stroke-linecap="round" stroke-linejoin="round"/>
</g>
</svg>
